<svg style="background:#000084" xmlns="http://www.w3.org/2000/svg" viewBox="0 0 64 64"><defs><clipPath id="a"><path fill="#fff" d="M0 0h40v40H0z"/></clipPath><clipPath id="b"><path fill="#fff" d="M0 0h40v40H0z"/></clipPath></defs><g clip-path="url(#a)" transform="matrix(1.19243 0 0 1.19243 8.151 8.266)"><g clip-path="url(#b)" fill-rule="evenodd" clip-rule="evenodd" fill="#fff"><path d="M6.03 11.306 29.012 0v3.317l-17.286 8.734 17.286 8.462v3.385L6.03 12.524Z"/><path d="M19.029 11.95c0-1.215.975-2.2 2.177-2.2a2.19 2.19 0 0 1 2.178 2.2c0 1.215-.975 2.199-2.178 2.199a2.187 2.187 0 0 1-2.177-2.2zM11.83 35.684c-.305 1.264-.967 2.267-1.988 3.011-1.02.742-2.252 1.113-3.694 1.113-1.844 0-3.33-.571-4.457-1.714C.564 36.952 0 35.446 0 33.574c0-1.856.566-3.357 1.697-4.503 1.13-1.148 2.614-1.72 4.45-1.72 1.838 0 3.325.565 4.442 1.693 1.116 1.129 1.674 2.632 1.674 4.512v.352H1.63c.085 1.405.52 2.492 1.305 3.258.785.767 1.856 1.15 3.214 1.15.982 0 1.822-.23 2.519-.689.696-.46 1.185-1.108 1.468-1.943h1.695zM1.672 32.637h8.877c-.084-1.158-.53-2.087-1.336-2.788-.807-.7-1.828-1.05-3.065-1.05-1.26 0-2.295.35-3.108 1.05-.813.7-1.27 1.63-1.368 2.788zM28.074 33.546c0 3.421 2.67 6.195 5.962 6.195S40 36.967 40 33.546c0-3.422-2.67-6.195-5.964-6.195-3.293 0-5.962 2.773-5.962 6.195zm1.608 0c0-2.599 1.965-4.705 4.388-4.705s4.39 2.106 4.39 4.705c0 2.598-1.966 4.706-4.39 4.706-2.424 0-4.388-2.108-4.388-4.706zM25.61 35.678h-1.663c-.737 1.49-2.198 2.506-3.88 2.506-2.423 0-4.388-2.108-4.388-4.706 0-2.598 1.965-4.705 4.388-4.705 1.657 0 3.1.984 3.846 2.437h1.672c-.872-2.3-3.029-3.927-5.552-3.927-3.293 0-5.962 2.773-5.962 6.195 0 3.421 2.669 6.195 5.962 6.195 2.548 0 4.722-1.66 5.577-3.995z"/></g></g></svg>
