<svg viewBox="0 0 128.971 128.971" xmlns="http://www.w3.org/2000/svg" style="background:linear-gradient(135deg,#ec0000 16%,#e48700)"><path fill="#fff" d="M104.439 107.366c-14.082 0-26.484 7.332-33.746 18.437h3.834c6.811-9.272 17.673-15.261 29.912-15.261 16.386 0 30.295 10.741 35.327 25.716h3.336c-5.165-16.727-20.522-28.892-38.663-28.892zm-42.265 23.6-1.13 5.575h23.812l1.131-5.574H62.174zm28.186 5.292-5.228 25.788h6.315l3.469-17.11 3.551 17.11h6.774l10.545-17.039-3.455 17.04h6.315l5.229-25.789h-9.067l-11.46 18.415-3.78-18.415H90.36zm-30.296 5.115-3.119 15.381h23.883l1.13-5.574H64.992l.98-4.832h16.827l1.009-4.975H60.064zm68.608.177-1.151 5.68h16.016c.423 0 .802.047 1.135.14.358.095.64.271.846.53.234.235.388.576.462 1.023.08.423.05.976-.089 1.658-.138.682-.333 1.234-.583 1.658-.25.423-.543.764-.878 1.023-.306.235-.657.4-1.052.494-.372.094-.77.141-1.193.141H126.17l-2.725 13.441h6.914l1.617-7.973h8.89c1.27 0 2.526-.106 3.768-.317a10.403 10.403 0 0 0 3.496-1.235c1.07-.635 2.003-1.529 2.801-2.681.798-1.153 1.388-2.67 1.77-4.551.376-1.858.402-3.375.076-4.551-.303-1.176-.858-2.093-1.665-2.751-.802-.682-1.791-1.141-2.967-1.377a18.311 18.311 0 0 0-3.668-.352h-15.804zm-62.587 20.368c5.44 16.244 20.552 27.961 38.354 27.961 16.978 0 31.512-10.658 37.54-25.736h-3.43c-5.824 13.305-18.9 22.562-34.11 22.562-16.046 0-29.722-10.297-35.008-24.787h-3.346z" transform="translate(-39.952 -84.137)"/></svg>
