<svg viewBox="143.78 36 64 64" style="background:#222" xmlns="http://www.w3.org/2000/svg"><path fill="#b00" d="m167.477 57.517 3.161-3.162h10.244l3.16 3.162v21.066l-3.16 3.16h-10.244l-3.161-3.16zm24.547-3.439-7.814-7.793h-16.917l-7.854 7.86v27.818l7.853 7.858h16.918l7.814-7.772z"/><path style="fill:#fff" d="m272.66 57.488-14.67 14.666v48.56l14.57 14.753h30.343l14.566-14.666.1-48.647-14.564-14.666zm29.737 1.325 14 13.931-.246 47.469-13.853 13.851H273.25l-13.946-13.953V72.744l13.946-13.928Zm-22.103 17.289-4.059 4.058v32.834l3.97 3.969h15.116l3.938-3.938V80.217h-.002l-4.116-4.115zm.574 1.326h13.775l3.285 3.285v31.76l-3.162 3.164h-14.023l-3.115-3.116V80.668Z" transform="matrix(.60993 0 0 .60993 .254 9.155)"/></svg>