<svg style="background:linear-gradient(102deg,#0082bc,#470a68 49%,#a6192e)" xmlns="http://www.w3.org/2000/svg" viewBox="0 0 64 64"><path fill="#fff" d="M9.541 19.25v25.5h12.752c2.441 0 4.724-.69 6.665-1.886v1.886h6.084V32c0-2.953 2.401-6.795 6.868-6.662 3.625.107 6.464 3.177 6.464 6.804V44.75h6.085V32.207c0-7.074-5.788-13.017-12.86-12.956-3.841.032-7.28 1.774-9.599 4.497-2.34-2.749-5.823-4.497-9.707-4.497Zm6.085 6.085h6.667A6.672 6.672 0 0 1 28.957 32a6.672 6.672 0 0 1-6.665 6.666h-6.667z"/></svg>
