<svg xmlns="http://www.w3.org/2000/svg" style="background:linear-gradient(#fb0000,#b00)" viewBox="0 0 64 64"><path fill="#fff" d="M39.005 22.127a15.235 15.235 0 0 1-10.664-9.597l-8.006 8.006c12.67 13.284 19.698 13.906 22.317 13.402a30.75 30.75 0 0 1-3.647-11.81zm-22.544 7.245 5.604 5.604a8.26 8.26 0 0 1 5.91 2.965l9.36 11.218a6.206 6.206 0 0 0 4.497 2.303 6.29 6.29 0 0 0 4.833-1.908l.138-.138a6.052 6.052 0 0 0 .613-7.808 59.037 59.037 0 0 1-3.252-4.912C41.12 37.763 33.421 37.93 19.87 24.38l-1.69-1.69-1.74 1.74a3.522 3.522 0 0 0 .02 4.941z"/></svg>
