<svg style="background:#126bc5" xmlns="http://www.w3.org/2000/svg" viewBox="0 0 64 64"><path d="M52.964 24.872 33.622 18.93a5.54 5.54 0 0 0-3.244 0l-19.342 5.942c-1.633.501-1.633 2.66 0 3.161l3.372 1.036a5.464 5.464 0 0 0-1.24 3.252c-.668.383-1.138 1.073-1.138 1.898 0 .747.394 1.376.961 1.778l-1.77 7.966a1.11 1.11 0 0 0 1.082 1.35h3.89a1.11 1.11 0 0 0 1.084-1.35l-1.77-7.966c.567-.402.96-1.03.96-1.778 0-.802-.448-1.474-1.085-1.863a3.271 3.271 0 0 1 1.435-2.546l13.56 4.166a5.545 5.545 0 0 0 3.245 0l19.342-5.942c1.633-.502 1.633-2.66 0-3.162zm-18.69 11.225a7.762 7.762 0 0 1-4.549 0L19.67 33.008l-.983 7.868c0 2.45 5.96 4.437 13.313 4.437 7.352 0 13.313-1.986 13.313-4.437l-.983-7.868z" fill="#f9f9f9"/></svg>
