<svg viewBox="0 0 48 48" style="background:#37c54e" xmlns="http://www.w3.org/2000/svg"><path fill="#fff" d="M38.878 15.192c-.312-.313-.716-.312-1.028 0l-4.527 4.527c-.33.33-.755.33-1.085 0l-.023-.025c-.33-.33-.33-.754 0-1.084l4.526-4.528c.313-.312.313-.715 0-1.028-.313-.312-.716-.312-1.028 0l-4.527 4.528c-.33.329-.756.329-1.085 0l-.025-.025c-.33-.33-.33-.755 0-1.085l4.528-4.527c.312-.312.313-.715 0-1.028-.312-.312-.67-.29-1.028 0l-5.471 4.486c-1.706 1.433-2.342 3.336-1.154 5.16.101.155.108.348-.057.496L13.312 33.144c-1.132 1.006-1.08 2.204.028 3.311 1.108 1.107 2.305 1.16 3.312.028l12.086-13.584c.146-.166.34-.158.494-.058 1.825 1.189 3.728.555 5.16-1.15l4.486-5.472c.29-.358.312-.715 0-1.027zm-20.351 7.797a.44.44 0 0 1 .522.103l1.701 1.915 2.19-1.949-2.043-1.814a.439.439 0 0 1-.103-.522c.804-1.826.592-4.6-1.953-7.145-2.688-2.688-6.612-3.339-8.705-1.246s-1.443 6.017 1.246 8.706c2.544 2.543 5.32 2.756 7.145 1.952zm15.76 10.152-7.34-6.523-2.384 2.68 6.384 7.184c1.007 1.132 2.205 1.081 3.313-.028 1.109-1.108 1.16-2.306.027-3.313z"/></svg>
