<svg viewBox="0 0 16.933 16.933" style="background:linear-gradient(135deg,#33e1cd 0,#6a5acd 75%)" xmlns="http://www.w3.org/2000/svg"><path fill="#fff" d="M12.049 5.532a2.341 2.341 0 0 0-2.35 1.927v.006l-.737 4.191a.432.432 0 0 0 .35.5.432.432 0 0 0 .5-.35l.426-2.415a2.32 2.32 0 0 0 1.355.77 2.34 2.34 0 0 0 2.702-1.892 2.339 2.339 0 0 0-2.245-2.737Zm-.02.863a1.462 1.462 0 0 1 1.415 1.724 1.462 1.462 0 0 1-1.702 1.191 1.462 1.462 0 0 1-1.19-1.7 1.461 1.461 0 0 1 1.476-1.215ZM6.095 5.532a2.34 2.34 0 0 0-2.347 1.915l-.002.012c0 .003 0 .007-.002.01l-.738 4.187a.432.432 0 0 0 .35.5.432.432 0 0 0 .5-.35l.426-2.415a2.32 2.32 0 0 0 1.355.77A2.34 2.34 0 0 0 8.339 8.27a2.34 2.34 0 0 0-2.245-2.737ZM6 6.396A1.462 1.462 0 0 1 7.49 8.12a1.462 1.462 0 0 1-1.702 1.19 1.462 1.462 0 0 1-1.19-1.7A1.46 1.46 0 0 1 6 6.395Z"/></svg>
